<svg xmlns="http://www.w3.org/2000/svg" viewBox="0 0 705.16 651.88"><defs><style>.cls-1{fill:#fff;fill-rule:evenodd;}</style></defs><g id="Capa_2" data-name="Capa 2"><g id="Layer_1" data-name="Layer 1"><path class="cls-1" d="M152.34,121.1l547.45,34.34s6,.44,5.32,9.52L688.94,319.57l-2.22,24.37s-.22,33.44-33,35.22l-284.19,38.1a10,10,0,0,1-6.1,8.63s.78,10.42-13.18,13.07l-44.08,4.88s-15.39,2.21-26,11.63L219.57,520s-5.43,9.75,7.08,10.19L634,529.34s17.28,1.55,8.64,17.27h7.8c12.23,3.84,8.2,19.08-.18,19.81H627.75s-1.68,6.48-7.4,8.7l-4.06,15.5-1.16.25A32.51,32.51,0,1,1,567,621.08a32.53,32.53,0,0,1-12.82-47.34l-2.91-8H311.62l-4,9.83A33,33,0,0,1,293.92,625,33,33,0,1,1,247,589.16l-.71-6.11s-3.88-8.49-10-12l-.74-5.53H209.73c-26.45-.53-36-26.29-16.8-43.29l63.44-70.65s18.55-19.8,28-22.43l-20.91,3.18s-15.2,4.43-27.16-15.94l-25.69-58.7s-6.76.44-3.77-8.53l-102-226.68c-11-24.4-17-51-40.5-64.82l-2.83,6.2L14.53,45.54C-11.6,33.36.22-6.35,28.55.87L78.21,21l-3.69,9.78C111.26,41.12,139.35,88,152.34,121.1Zm-34-2.27,20.49.77S109.38,49.17,70.4,40.31L69.07,45.4s30.15,12.67,49.28,73.43ZM261.58,607.36a11.35,11.35,0,1,0,11.35,11.35,11.35,11.35,0,0,0-11.35-11.35Zm337.91,3.43a8.59,8.59,0,1,0,8.59,8.58,8.58,8.58,0,0,0-8.59-8.58ZM123.22,129.44,248,408.17c9.23,12.55,20.12,9.78,20.12,9.78L640.43,367c35.44-4.43,35.81-31,35.81-31L693.59,164.7Z"/><polygon class="cls-1" points="144.05 126.49 145.98 130.85 276.95 419.24 285.63 415.55 157.59 131.56 144.05 126.49"/><polygon class="cls-1" points="188.16 127.87 195.75 133.92 311.94 411.95 322.17 413.43 321.78 410.61 206.7 134.6 196.47 127.41 188.16 127.87"/><polygon class="cls-1" points="245.25 131.6 244.92 136.96 348.55 406.94 358.39 409.01 358.16 405.63 256.26 137.66 245.25 131.6"/><polygon class="cls-1" points="288.01 134.25 294.21 140.01 385 401.95 393.78 403.29 394.34 400.68 304.67 140.66 298.25 134.63 288.01 134.25"/><polygon class="cls-1" points="343.57 138.69 343.3 143.04 421.28 396.99 429.95 397.94 431.23 395.63 353.26 143.66 346.05 136.98 343.57 138.69"/><polygon class="cls-1" points="391.27 141.59 391.39 142.05 392.39 146.08 457.64 392.02 466.86 393.74 467.35 390.69 402.44 146.7 391.27 141.59"/><path class="cls-1" d="M439.63,145.19l1.56,3.9L494,387l7.65,1.62a29.69,29.69,0,0,1,1.89-3.18c0,.25-51.83-235.74-51.83-235.74s-5.62-6.67-6.27-6.67A57,57,0,0,0,439.63,145.19Z"/><polygon class="cls-1" points="485.13 145.47 490.38 152.13 530.7 382.02 537.36 383.03 540.32 380.7 500.76 152.78 493.33 146.53 485.13 145.47"/><polygon class="cls-1" points="539.57 152.9 539.43 155.17 567.07 377.04 575.98 379.34 576.81 375.71 549.57 155.79 543.68 150.82 539.57 152.9"/><polygon class="cls-1" points="589.08 152.76 588.75 158.22 604.15 371.97 610.22 377.04 613.41 370.7 598.24 158.8 592.31 153.04 589.08 152.76"/><polygon class="cls-1" points="638.73 156.45 636.6 161.17 640.43 367 650.27 370.39 650.8 364.83 647.12 161.82 638.73 156.45"/><polygon class="cls-1" points="160.23 235.78 170.71 235.53 691.95 236.45 685.36 245.98 175.35 245.89 160.23 235.78"/><polygon class="cls-1" points="219.14 352.68 221 347.87 678.7 311.64 682.75 318.51 677.7 321.6 225.19 357.21 219.14 352.68"/></g></g></svg>