<svg xmlns="http://www.w3.org/2000/svg" viewBox="0 0 120 121.13"><defs><style>.cls-1{fill:#232323;}</style></defs><g id="Capa_2" data-name="Capa 2"><g id="Capa_1-2" data-name="Capa 1"><circle class="cls-1" cx="83.21" cy="113.77" r="7.36" transform="translate(-29.64 29.32) rotate(-17.01)"/><circle class="cls-1" cx="33.96" cy="113.77" r="7.36" transform="translate(-11.21 3.97) rotate(-5.74)"/><path class="cls-1" d="M119.87,2.48A3.39,3.39,0,0,0,115.69.13l-14.15,4a3.42,3.42,0,0,0-2.38,2.42L95.67,20,3,30.27A3.38,3.38,0,0,0,.11,34.49L10.94,76.56l4.43,19.29a3.39,3.39,0,0,0,3.31,2.64H97.92a3.4,3.4,0,1,0,0-6.79H21.38l-1.95-8.49h71.7a3.39,3.39,0,0,0,3.37-3L101,26.43a3.66,3.66,0,0,0,.25-.68l4-15.65,12.27-3.43A3.4,3.4,0,0,0,119.87,2.48ZM64.05,76.42l1.82-46.26,12.07-1.33L72.68,76.42Zm-30.94,0-6-42,12.55-1.39,1.9,43.36ZM46.38,32.31,59,30.92l-1.78,45.5H48.32ZM20.31,35.19l5.93,41.23H17.92L7.66,36.59ZM88.12,76.42h-8.6l5.34-48.35,9.18-1Z"/></g></g></svg>