<svg xmlns="http://www.w3.org/2000/svg" viewBox="0 0 115.56 89.17"><defs><style>.cls-1{fill:#fff;}</style></defs><g id="Capa_2" data-name="Capa 2"><g id="Layer_1" data-name="Layer 1"><path class="cls-1" d="M101.32,59.65A66.81,66.81,0,0,0,98.2,48.91a47.77,47.77,0,0,0-4.62-9.19q-2.62-4-5.7-4.71a6.24,6.24,0,0,0-4.68.79q-2.39,1.35-5.08,5.82c.06.87.2,2.69.41,5.48s.35,6,.44,9.58S79,64,78.9,67.93a65.18,65.18,0,0,1-1.16,10.73A25,25,0,0,1,75,86.46a4.83,4.83,0,0,1-4.73,2.7c-3.16-.43-5.21-2.54-6.12-6.35a37.66,37.66,0,0,1-.46-13.3,81.44,81.44,0,0,1,3.61-15.77,53.78,53.78,0,0,1,6.46-13.68q-.41-4.2-1.16-9.5a88.13,88.13,0,0,0-2-10,44,44,0,0,0-2.93-8.13c-1.14-2.33-2.47-3.76-4-4.29q-3-1-5.14,1.83A25,25,0,0,0,55,17.72a76.51,76.51,0,0,0-2.4,11.2c-.6,4.2-1.06,8.32-1.35,12.35S50.8,48.89,50.79,52s0,5.41-.1,6.77a9.41,9.41,0,0,1-1.54,5.52,8,8,0,0,1-3.64,3.21,4.62,4.62,0,0,1-3.77,0c-1.16-.54-1.77-1.84-1.81-3.9,0-2.22,0-5,.19-8.4s.37-7.17.71-11.36q-1.29-5.68-3.21-11.66a85.93,85.93,0,0,0-4.24-10.76,37.26,37.26,0,0,0-5.1-8c-1.87-2.15-3.78-3.38-5.75-3.69-1.57-.21-3,1.07-4.19,3.85a52.19,52.19,0,0,0-3.12,10.78Q13.93,31,13.12,39T11.87,54.29q-.43,7.32-.67,12.9t-.38,7.08a11.09,11.09,0,0,1-2.23,6.25,7.26,7.26,0,0,1-3.81,2.66,3.65,3.65,0,0,1-3.44-1Q-.16,80.83,0,77.55c.08-2,.2-5.37.38-10s.51-9.86,1-15.63S2.68,40.2,3.68,34.12A87.39,87.39,0,0,1,7.82,17.84,32.34,32.34,0,0,1,14.56,6.41,10.22,10.22,0,0,1,24.5,3.3a12.49,12.49,0,0,1,5.73,3.31,30.66,30.66,0,0,1,4.91,6.31,51.79,51.79,0,0,1,4.06,8.54q1.8,4.78,3.2,10A91.14,91.14,0,0,1,45.09,19,45.55,45.55,0,0,1,49.43,8.69a17.52,17.52,0,0,1,6.16-6.45A10.93,10.93,0,0,1,64,1.32q4.05,1,6.7,6.49a52.78,52.78,0,0,1,4,11.72q1.35,6.21,2.6,16.25a13.56,13.56,0,0,1,6.41-5,11.38,11.38,0,0,1,6.13-.44c2.83.69,5.28,2.64,7.36,5.88a48.18,48.18,0,0,1,5.13,10.84,83.82,83.82,0,0,1,3.08,11.76,60.41,60.41,0,0,1,1.13,8.85,2.54,2.54,0,0,1-1.79,2.77q-1.91.69-2-1.38A77.46,77.46,0,0,0,101.32,59.65ZM74.47,79.92a73.61,73.61,0,0,0,1-11.4q.14-6.51-.16-12.85c-.2-4.24-.39-7.14-.55-8.71q-1.52,3.72-3.39,9.81a86.23,86.23,0,0,0-2.82,12.12,39.87,39.87,0,0,0-.44,10.65c.35,3.07,1.5,4.76,3.47,5.06C72.92,84.75,73.89,83.19,74.47,79.92Z"/><path class="cls-1" d="M115.06,7.28a6.64,6.64,0,0,0-7.16-4.62,8.89,8.89,0,0,0-4.73,2.16,8.07,8.07,0,0,0-2.35-3.45C97.27-1.57,91.7.61,89.58,4.22s.2,7.91,2.13,10.88S96,20.37,98,23.16a2.45,2.45,0,0,0,.89.77,2.66,2.66,0,0,0,.81,1.54,2.46,2.46,0,0,0,3.38-.27,44.36,44.36,0,0,1,4.19-2.9,36.21,36.21,0,0,0,5.08-4A10.86,10.86,0,0,0,115.06,7.28Zm-7.81,9.16c-1.74,1.37-3.65,2.51-5.46,3.79-1.54-2.15-3.4-4.08-5-6.2a23.9,23.9,0,0,1-2.4-3.8c-.15-.31-.28-.64-.41-1-.06-.16-.11-.32-.16-.48,0,0-.16-.56-.14-.45a3.51,3.51,0,0,1,0-1.46l0-.15a2.6,2.6,0,0,1,.1-.25l.1-.17.18-.24a4.63,4.63,0,0,1,1.53-1,4.46,4.46,0,0,1,.9-.24l.42,0c-.14,0,.38,0,.42,0l.13,0,.26.15c-.35-.18,0,.08.28.27,0,.06.28.37.32.44l.1.17L98.5,6a8.8,8.8,0,0,1,.5,1.5,1.15,1.15,0,0,0,0,.14c0,.18.07.37.1.55a3.85,3.85,0,0,0,.48,1.48l.06.09c-.29,2.29,3.31,3.69,4.59,1.25a9,9,0,0,1,2-2.58,7.33,7.33,0,0,1,.64-.45,1.79,1.79,0,0,1,.54-.3c.21-.09.43-.17.65-.24l.09,0,.39,0H109l.41.08c-.26-.06.2.09.3.13l.06,0,.24.2.07.05a1.23,1.23,0,0,0,.08.12l.23.33a.38.38,0,0,0,.05.12,3.57,3.57,0,0,1,.34,1.47C111,12.88,109.52,14.67,107.25,16.44Z"/></g></g></svg>