<svg xmlns="http://www.w3.org/2000/svg" viewBox="0 0 106.31 45.57"><defs><style>.cls-1{fill:#1d1d1b;}</style></defs><g id="Capa_2" data-name="Capa 2"><g id="Capa_1-2" data-name="Capa 1"><path class="cls-1" d="M18.41,0h.92L37.74,45.32H27.89l-1.77-4.71H11.62L9.91,45.32H0Zm4.47,32.42L18.9,21,14.8,32.42Z"/><path class="cls-1" d="M45.05,45.32V1.59H53.8V45.32Z"/><path class="cls-1" d="M83.68,45.45a22.2,22.2,0,0,1-12-3.12,20.06,20.06,0,0,1-7.49-8.17,23.81,23.81,0,0,1-2.51-10.8,23.67,23.67,0,0,1,2.51-10.73,20.06,20.06,0,0,1,7.49-8.17,22.28,22.28,0,0,1,12-3.11,22.31,22.31,0,0,1,12,3.11,20.23,20.23,0,0,1,7.52,8.2,23.92,23.92,0,0,1,2.54,10.83,23.45,23.45,0,0,1-1.35,7.86,22.46,22.46,0,0,1-3.85,6.88l5.75,7.34H96.64L94.5,43.06A23.38,23.38,0,0,1,83.68,45.45Zm7.95-18.66,3.06,3.91a14.39,14.39,0,0,0,1.83-7.21A14.73,14.73,0,0,0,95.06,17a12.19,12.19,0,0,0-4.38-4.92,13.83,13.83,0,0,0-13.94,0A11.92,11.92,0,0,0,72.36,17a14.91,14.91,0,0,0,0,12.91,11.86,11.86,0,0,0,4.38,4.89,12.5,12.5,0,0,0,6.94,1.87,13.6,13.6,0,0,0,4.95-.86l-7.34-9Z"/></g></g></svg>